<svg version="1.2" xmlns="http://www.w3.org/2000/svg" viewBox="0 0 800 446" width="800" height="446"><defs><filter x="-50%" y="-50%" width="200%" height="200%" id="f1"> <feGaussianBlur stdDeviation="12"/> </filter><linearGradient id="P" gradientUnits="userSpaceOnUse"/><linearGradient id="g1" x2="1" href="#P" gradientTransform="matrix(-165,0,0,-159,400,134.5)"><stop stop-color="#bd6d5e"/><stop offset=".48" stop-color="#df9139"/><stop offset="1" stop-color="#c9816f"/></linearGradient><linearGradient id="g2" x2="1" href="#P" gradientTransform="matrix(0,165,-165,0,317.5,207)"><stop stop-color="#c9816f"/><stop offset="1" stop-color="#d2a08e"/></linearGradient><linearGradient id="g3" x2="1" href="#P" gradientTransform="matrix(-165,0,0,-165,565,289.5)"><stop stop-color="#61529c"/><stop offset="1" stop-color="#861c77"/></linearGradient><linearGradient id="g4" x2="1" href="#P" gradientTransform="matrix(-165,0,0,-165,565,137.5)"><stop stop-color="#1b89c7"/><stop offset="1" stop-color="#568697"/></linearGradient><linearGradient id="g5" x2="1" href="#P" gradientTransform="matrix(300,300,-300,300,250,64)"><stop stop-color="#19181d"/><stop offset="1"/></linearGradient><linearGradient id="g6" x2="1" href="#P" gradientTransform="matrix(0,221,-248,0,400,103)"><stop stop-color="#9aeffd"/><stop offset="1" stop-color="#61dafb"/></linearGradient><linearGradient id="g7" x2="1" href="#P" gradientTransform="matrix(0,46,-46,0,399,191)"><stop stop-color="#9aeffd"/><stop offset="1" stop-color="#61dafb"/></linearGradient></defs><style>.a{filter:url(#f1);fill:url(#g1)}.b{filter:url(#f1);fill:url(#g2)}.c{filter:url(#f1);fill:url(#g3)}.d{filter:url(#f1);fill:url(#g4)}.e{fill:url(#g5);stroke:#fff}.f{fill:url(#g6)}.g{fill:url(#g7)}</style><path class="a" d="m235 55h165v159h-165z"/><path class="b" d="m235 207h165v165h-165z"/><path class="c" d="m400 207h165v165h-165z"/><path class="d" d="m400 55h165v165h-165z"/><path  d="m250 64h300v300h-300z"/><path class="e" d="m250 64h300v300h-300z"/><path fill-rule="evenodd" class="f" d="m472.2 255.2c7.3 32 4.1 57.6-10.1 65.8-3.3 1.9-7.2 2.8-11.4 2.8-13.9 0-32.1-9.8-50.5-26.9-18.4 17.2-36.6 27.1-50.5 27.1-4.2 0-8.1-0.9-11.4-2.8-14.2-8.2-17.5-33.8-10.2-66-31.5-9.7-52.1-25.2-52.1-41.7 0-16.4 20.5-31.9 51.9-41.6-7.3-32.1-4.1-57.6 10.1-65.8 3.3-1.9 7.2-2.8 11.4-2.8v-0.1c13.9 0 32.1 9.8 50.5 26.9 18.4-17.2 36.6-27.1 50.5-27.1v0.1c4.2 0 8 0.9 11.3 2.8 14.2 8.2 17.5 33.8 10.2 65.9 31.5 9.7 52.1 25.3 52.1 41.7 0 16.4-20.5 32-51.8 41.7zm-21.9-152.1v11.2q0.1 0 0.1 0v-11.2q0 0-0.1 0zm0 11.2c-10.5 0-25.9 8.4-42.4 23.7 7.2 7.4 14.2 15.9 21.1 25.3 11.3 1.2 22.2 3.1 32.1 5.5 1.1-5.1 2-10.1 2.5-14.9 2.4-19.3-0.6-34.3-7.5-38.3-1.6-0.8-3.4-1.3-5.8-1.3zm-100.9 0.2v0.1c-2.3 0-4.3 0.4-5.8 1.3-6.8 4-9.8 19-7.4 38.3 0.6 4.7 1.5 9.7 2.6 14.7 9.9-2.5 20.8-4.3 32.2-5.6 6.7-9.3 13.8-17.8 20.9-25.2-16.5-15.2-32-23.6-42.5-23.6zm88.1 61.3c2.4 3.9 4.9 7.8 7.2 11.9 2.4 4 4.6 8.1 6.7 12.1 2.6-6.7 4.9-13.4 6.8-20-6.6-1.6-13.6-2.9-20.7-4zm8 37.7c-3.2-6.8-6.7-13.5-10.5-20.1-4-6.8-8.1-13.2-12.3-19.2-7.4-0.6-15.1-1-22.7-1-7.7 0-15.3 0.4-22.8 1-4.2 6-8.3 12.5-12.2 19.3-3.8 6.7-7.4 13.4-10.5 20.2 3.2 6.8 6.7 13.5 10.5 20.2 4 6.7 8.1 13.2 12.3 19.2 7.4 0.6 15.1 0.9 22.7 0.9 7.7 0 15.3-0.3 22.8-1 4.2-6 8.3-12.5 12.2-19.3 3.8-6.6 7.3-13.4 10.5-20.2zm-0.7 25.8c-2.3 4.1-4.8 8.1-7.3 12 7.2-1.1 14.2-2.4 20.8-4-1.9-6.6-4.2-13.4-6.9-20.2-2.1 4.1-4.3 8.2-6.6 12.2zm-30.8 25.6c-4.6 0.3-9.3 0.4-14.1 0.4-4.7 0-9.3-0.2-13.9-0.4 4.7 5.9 9.4 11.3 14.1 16.2 4.7-4.9 9.4-10.3 13.9-16.2zm-58.8-25.4c-2.4-4.1-4.5-8.1-6.6-12.2-2.6 6.8-5 13.5-6.8 20 6.6 1.6 13.5 2.9 20.7 4q-3.7-5.8-7.3-11.8zm30.7-77.3c4.6-0.2 9.3-0.3 14.1-0.3 4.7 0 9.4 0.1 13.9 0.3-4.6-5.9-9.4-11.3-14.1-16.2-4.6 4.9-9.3 10.3-13.9 16.2zm-44.3 17.6c1.9 6.6 4.3 13.4 7 20.2q3.1-6.1 6.6-12.2c2.3-4.1 4.8-8.1 7.2-12-7.2 1.1-14.2 2.5-20.8 4zm-10.8 64.5c2.9-9.8 6.6-20.1 11.3-30.6-4.7-10.6-8.5-20.9-11.4-30.8-4.9 1.5-9.7 3.2-14 5.1-17.9 7.6-29.5 17.6-29.5 25.6 0 7.9 11.6 17.9 29.5 25.6 4.4 1.8 9.1 3.6 14.1 5.1zm18.8 68.5c10.5 0 26-8.4 42.5-23.7-7.2-7.4-14.2-15.9-21.1-25.3-11.3-1.2-22.2-3.1-32.1-5.5-1.1 5.1-2 10.1-2.5 14.9-2.4 19.3 0.6 34.3 7.5 38.3q2.3 1.2 5.7 1.3zm111.6-54.6c-9.9 2.5-20.8 4.3-32.2 5.6-6.7 9.3-13.8 17.8-20.9 25.2 16.5 15.2 32 23.6 42.5 23.6 2.3 0 4.3-0.4 5.8-1.3 6.8-4 9.8-19.1 7.4-38.4-0.6-4.7-1.5-9.6-2.6-14.7zm51.6-44.6c0-8-11.6-18-29.5-25.6q-6.7-2.8-14.2-5.2c-2.8 9.9-6.6 20.2-11.2 30.7 4.7 10.5 8.5 20.9 11.4 30.8 4.9-1.6 9.6-3.3 14-5.1 17.9-7.6 29.4-17.7 29.5-25.6z"/><path class="g" d="m399 237c-12.7 0-23-10.3-23-23 0-12.7 10.3-23 23-23 12.7 0 23 10.3 23 23 0 12.7-10.3 23-23 23z"/></svg>